<svg width="15" height="15" viewBox="0 0 15 15" fill="none" xmlns="http://www.w3.org/2000/svg">
<path fill-rule="evenodd" clip-rule="evenodd" d="M8.09625 3.28125C8.09625 3.15693 8.04686 3.0377 7.95896 2.94979C7.87105 2.86189 7.75182 2.8125 7.6275 2.8125H1.40625C1.03329 2.8125 0.675604 2.96066 0.411881 3.22438C0.148158 3.4881 0 3.84579 0 4.21875V13.5938C0 13.9667 0.148158 14.3244 0.411881 14.5881C0.675604 14.8518 1.03329 15 1.40625 15H10.7812C11.1542 15 11.5119 14.8518 11.7756 14.5881C12.0393 14.3244 12.1875 13.9667 12.1875 13.5938V7.3725C12.1875 7.24818 12.1381 7.12895 12.0502 7.04104C11.9623 6.95314 11.8431 6.90375 11.7188 6.90375C11.5944 6.90375 11.4752 6.95314 11.3873 7.04104C11.2994 7.12895 11.25 7.24818 11.25 7.3725V13.5938C11.25 13.7181 11.2006 13.8373 11.1127 13.9252C11.0248 14.0131 10.9056 14.0625 10.7812 14.0625H1.40625C1.28193 14.0625 1.1627 14.0131 1.07479 13.9252C0.986886 13.8373 0.9375 13.7181 0.9375 13.5938V4.21875C0.9375 4.09443 0.986886 3.9752 1.07479 3.88729C1.1627 3.79939 1.28193 3.75 1.40625 3.75H7.6275C7.75182 3.75 7.87105 3.70061 7.95896 3.61271C8.04686 3.5248 8.09625 3.40557 8.09625 3.28125Z" fill="black"/>
<path fill-rule="evenodd" clip-rule="evenodd" d="M15 0.46875C15 0.34443 14.9506 0.225201 14.8627 0.137294C14.7748 0.049386 14.6556 0 14.5312 0H9.84375C9.71943 0 9.6002 0.049386 9.51229 0.137294C9.42439 0.225201 9.375 0.34443 9.375 0.46875C9.375 0.59307 9.42439 0.712299 9.51229 0.800206C9.6002 0.888114 9.71943 0.9375 9.84375 0.9375H13.3997L5.76188 8.57438C5.71829 8.61796 5.68372 8.6697 5.66013 8.72664C5.63655 8.78358 5.62441 8.84461 5.62441 8.90625C5.62441 8.96789 5.63655 9.02892 5.66013 9.08586C5.68372 9.1428 5.71829 9.19454 5.76188 9.23812C5.80546 9.28171 5.8572 9.31628 5.91414 9.33987C5.97108 9.36345 6.03211 9.37559 6.09375 9.37559C6.15539 9.37559 6.21642 9.36345 6.27336 9.33987C6.3303 9.31628 6.38204 9.28171 6.42562 9.23812L14.0625 1.60031V5.15625C14.0625 5.28057 14.1119 5.3998 14.1998 5.48771C14.2877 5.57561 14.4069 5.625 14.5312 5.625C14.6556 5.625 14.7748 5.57561 14.8627 5.48771C14.9506 5.3998 15 5.28057 15 5.15625V0.46875Z" fill="black"/>
</svg>
